<svg xmlns="http://www.w3.org/2000/svg" viewBox="0 0 1600 1200" preserveAspectRatio="xMidYMid slice">
  <defs>
    <filter id="g" x="-10%" y="-10%" width="120%" height="120%">
      <feGaussianBlur stdDeviation="0.6"/>
    </filter>
  </defs>
  <g filter="url(#g)">
    <path d="M-180,-120 C140,-160 420,80 380,340 C350,560 140,640 -80,540 C-260,460 -320,140 -180,-120 Z" fill="#C9B49A" opacity="0.55"/>
    <path d="M-60,720 C180,640 340,820 320,1020 C300,1240 60,1280 -120,1180 C-280,1090 -260,820 -60,720 Z" fill="#E8C9B5" opacity="0.6"/>
    <path d="M120,420 C260,360 380,460 360,560 C340,660 220,700 140,640 C60,580 40,470 120,420 Z" fill="#D9C5AD" opacity="0.4"/>
    <circle cx="1480" cy="180" r="240" fill="#E8D3C8" opacity="0.45"/>
    <circle cx="1380" cy="980" r="180" fill="#D9C5AD" opacity="0.4"/>
  </g>
</svg>
