<svg xmlns="http://www.w3.org/2000/svg" viewBox="0 0 1600 1200" preserveAspectRatio="xMidYMid slice" fill="none" stroke="#C47058" stroke-width="1.1" stroke-linecap="round">
  <g opacity="0.45">
    <path d="M1200,-40 C1320,120 1280,260 1380,380 C1480,500 1440,640 1340,760 C1240,880 1300,1000 1420,1100 C1500,1180 1500,1240 1480,1300"/>
    <path d="M1240,-40 C1360,140 1320,280 1420,400 C1520,520 1480,660 1380,780 C1280,900 1340,1020 1460,1120"/>
    <path d="M1280,-40 C1400,160 1360,300 1460,420 C1560,540 1520,680 1420,800 C1320,920 1380,1040 1500,1140"/>
    <path d="M1320,-40 C1440,180 1400,320 1500,440 C1600,560 1560,700 1460,820"/>
    <path d="M1360,-40 C1480,200 1440,340 1540,460"/>
    <path d="M1160,-40 C1280,100 1240,240 1340,360 C1440,480 1400,620 1300,740 C1200,860 1260,980 1380,1080"/>
    <path d="M1120,-40 C1240,80 1200,220 1300,340 C1400,460 1360,600 1260,720"/>
  </g>
</svg>
